<svg xmlns="http://www.w3.org/2000/svg" width="561" height="491" fill="none" viewBox="0 0 561 491">
  <path fill="#004E92" d="M534.336.5h-507.5A26.253 26.253 0 008.274 8.188 26.26 26.26 0 00.586 26.75v367.5c0 6.96 2.766 13.64 7.688 18.561a26.26 26.26 0 0018.562 7.688h245v52.5h-135.62a8.75 8.75 0 000 17.5h288.75a8.75 8.75 0 000-17.5h-135.62v-52.5h245a26.253 26.253 0 0018.562-7.688 26.255 26.255 0 007.687-18.561V26.75c0-6.961-2.765-13.642-7.687-18.563A26.26 26.26 0 00534.346.5h-.01zm8.75 393.75a8.753 8.753 0 01-8.75 8.75h-507.5a8.75 8.75 0 01-8.75-8.75V26.75a8.75 8.75 0 018.75-8.75h507.5a8.75 8.75 0 018.75 8.75v367.5z"/>
  <path fill="#004E92" d="M118.706 35.5a83.117 83.117 0 00-58.777 24.348 83.117 83.117 0 000 117.554 83.117 83.117 0 00117.554 0 83.117 83.117 0 000-117.554A83.123 83.123 0 00118.706 35.5zM80.729 172.04a38.207 38.207 0 0120.07-29.656 38.207 38.207 0 0135.812 0 38.207 38.207 0 0120.07 29.656 65.19 65.19 0 01-75.954 0h.002zm20.738-68.773a17.24 17.24 0 0134.478 0c0 4.57-1.817 8.957-5.051 12.188a17.23 17.23 0 01-12.188 5.051 17.283 17.283 0 01-17.239-17.239zm69.738 54.73a55.742 55.742 0 00-26.992-31.062 34.764 34.764 0 009.219-24.488 34.763 34.763 0 00-10.484-23.977 34.745 34.745 0 00-48.484 0 34.755 34.755 0 00-10.484 23.977 34.758 34.758 0 009.218 24.488 55.746 55.746 0 00-26.991 31.062 65.617 65.617 0 01-12.832-45.574 65.628 65.628 0 0165.332-59.426 65.627 65.627 0 0152.5 105h-.002zM193.086 236.75H44.336a8.75 8.75 0 000 17.5h148.75a8.75 8.75 0 000-17.5zM44.336 298h94.195a8.75 8.75 0 000-17.5H44.336a8.75 8.75 0 000 17.5zM228.086 35.5a8.75 8.75 0 00-8.75 8.75v332.5a8.75 8.75 0 0017.5 0V44.25a8.75 8.75 0 00-8.75-8.75zM193.086 324.25H44.336a8.75 8.75 0 00-8.75 8.75v43.75c0 2.32.922 4.547 2.562 6.188a8.754 8.754 0 006.188 2.562h148.75a8.752 8.752 0 008.75-8.75V333a8.753 8.753 0 00-8.75-8.75zm-8.75 43.75H53.086v-26.25h131.25V368zM525.586 70.8V44.245a8.75 8.75 0 00-8.75-8.75h-253.75a8.75 8.75 0 00-8.75 8.75v144.38a8.752 8.752 0 008.75 8.75h253.75a8.749 8.749 0 008.75-8.75V70.8zm-17.5-17.805V66.12l-45.281 29.969-44.273-12.164a8.75 8.75 0 00-8.488 2.277l-44.012 43.969-47.078-19.645a8.75 8.75 0 00-8.75 1.051l-38.367 28.348v-86.93h236.249zm-236.25 126.88v-18.199l44.93-33.074 48.125 19.992a8.747 8.747 0 009.539-1.926l44.363-44.535 43.227 11.812h-.004c2.43.664 5.031.25 7.133-1.14l38.938-25.77v92.84H271.836zM525.586 258.62a35.008 35.008 0 00-14.113-28.012 35 35 0 00-53.742 16.023l-33.383-3.281a34.992 34.992 0 00-20.801-25.734 34.987 34.987 0 00-32.941 3.094 35 35 0 00-15.645 29.16 34.262 34.262 0 00.656 6.738l-39.375 18.898a34.99 34.99 0 00-29.156-12.438 34.986 34.986 0 00-27.242 16.207 34.999 34.999 0 0020.743 52.582v36.137h-17.5a8.75 8.75 0 000 17.5h253.75a8.75 8.75 0 000-17.5h-17.5v-75.512a35.005 35.005 0 0026.25-33.863l-.001.001zm-35-17.5c4.641 0 9.094 1.844 12.375 5.125a17.504 17.504 0 010 24.75 17.504 17.504 0 01-24.75 0 17.504 17.504 0 010-24.75 17.504 17.504 0 0112.375-5.125zm-100.62-8.75c4.641 0 9.094 1.844 12.375 5.125a17.504 17.504 0 010 24.75 17.504 17.504 0 01-24.75 0 17.504 17.504 0 010-24.75 17.504 17.504 0 0112.375-5.125zm-118.12 65.625c0-4.641 1.844-9.094 5.125-12.375a17.504 17.504 0 0124.75 0 17.504 17.504 0 010 24.75 17.504 17.504 0 01-24.75 0 17.504 17.504 0 01-5.125-12.375zm26.25 33.863a35.005 35.005 0 0026.25-33.863 34.18 34.18 0 00-.657-6.738l39.375-18.898a35.23 35.23 0 0018.156 11.375v84.262h-83.125l.001-36.138zm100.62 36.137v-84.262a35.01 35.01 0 0024.457-22.926l32.898 3.238a35.002 35.002 0 0025.769 28.437v75.512l-83.124.001z"/>
</svg>
