<svg xmlns="http://www.w3.org/2000/svg" width="251" height="71" fill="none" viewBox="0 0 251 71">
  <path fill="#fff" d="M94.973 40.165c1.154.215 2.103.792 2.846 1.731a5.055 5.055 0 011.114 3.227c0 1.095-.273 2.063-.821 2.904-.528.821-1.3 1.466-2.317 1.936-1.017.469-2.22.704-3.608.704h-8.83V30.192h8.448c1.389 0 2.582.225 3.579.675 1.017.45 1.78 1.075 2.288 1.877.528.802.792 1.711.792 2.728 0 1.193-.323 2.19-.968 2.992-.626.802-1.467 1.369-2.523 1.701zm-7.509-1.525h3.755c.978 0 1.73-.215 2.258-.645.528-.45.792-1.086.792-1.907s-.264-1.457-.792-1.907c-.528-.45-1.28-.674-2.258-.674h-3.755v5.133zm4.136 8.683c.997 0 1.77-.235 2.317-.704.567-.47.851-1.135.851-1.995 0-.88-.293-1.564-.88-2.053-.587-.509-1.379-.763-2.376-.763h-4.048v5.515H91.6zm20.11 3.549c-1.916 0-3.676-.45-5.28-1.35a10.112 10.112 0 01-3.813-3.725c-.939-1.603-1.408-3.412-1.408-5.426 0-1.995.469-3.784 1.408-5.368a10.047 10.047 0 013.813-3.755c1.604-.9 3.364-1.35 5.28-1.35 1.936 0 3.696.45 5.28 1.35a9.828 9.828 0 013.784 3.755c.939 1.584 1.408 3.373 1.408 5.368 0 2.014-.469 3.823-1.408 5.426a9.888 9.888 0 01-3.784 3.726c-1.603.9-3.363 1.349-5.28 1.349zm0-3.667c1.232 0 2.318-.273 3.256-.821.939-.567 1.672-1.369 2.2-2.405.528-1.037.792-2.24.792-3.608 0-1.37-.264-2.562-.792-3.579-.528-1.036-1.261-1.828-2.2-2.376-.938-.547-2.024-.821-3.256-.821-1.232 0-2.327.273-3.285.821-.939.548-1.672 1.34-2.2 2.376-.528 1.017-.792 2.21-.792 3.579 0 1.369.264 2.571.792 3.608.528 1.036 1.261 1.838 2.2 2.405.958.548 2.053.821 3.285.821zm17.634.206h6.747v3.256h-10.853V30.192h4.106v17.219zm13.464-13.904v5.133h6.893v3.256h-6.893v5.427h7.773v3.344h-11.88V30.163h11.88v3.344h-7.773zm25.438-3.315v3.315h-5.456v17.16h-4.106v-17.16h-5.456v-3.315h15.018zm15.61 16.837h-7.685l-1.232 3.638h-5.251l7.451-20.592h5.808l7.45 20.592h-5.309l-1.232-3.638zm-1.291-3.872l-2.552-7.538-2.522 7.538h5.074zm22.919 3.872h-7.686l-1.232 3.638h-5.25l7.45-20.592h5.808l7.451 20.592h-5.309l-1.232-3.638zm-1.291-3.872l-2.552-7.538-2.523 7.538h5.075zm15.116-13.082v20.592h-5.016V30.075h5.016z"/>
  <mask id="a" width="45" height="71" x="0" y="0" maskUnits="userSpaceOnUse" style="mask-type:alpha">
    <path fill="#C4C4C4" d="M0 70.303h9.624c19.414 0 35.152-15.738 35.152-35.152V22.388C44.776 10.023 34.752 0 22.388 0 10.023 0 0 10.023 0 22.388v47.915z"/>
  </mask>
  <g mask="url(#a)">
    <path fill="url(#paint0_linear_401_147)" d="M-38.6-45.393H64.332v154.399H-38.6z"/>
  </g>
  <g>
    <mask id="b" width="58" height="52" x="0" y="19" maskUnits="userSpaceOnUse" style="mask-type:alpha">
      <path fill="#C4C4C4" d="M0 70.303h31.96c14.014 0 25.373-11.36 25.373-25.373 0-14.013-11.36-25.373-25.372-25.373h-3.294C12.834 19.557 0 32.392 0 48.224v22.079z"/>
    </mask>
    <g mask="url(#b)">
      <path fill="url(#paint1_linear_401_147)" d="M-86.257-2.882H57.334v95.727H-86.257z"/>
    </g>
  </g>
  <defs>
    <linearGradient id="paint0_linear_401_147" x1="12.867" x2="12.867" y1="-45.393" y2="109.006" gradientUnits="userSpaceOnUse">
      <stop stop-color="#fff"/>
      <stop offset="1" stop-color="#fff" stop-opacity="0"/>
    </linearGradient>
    <linearGradient id="paint1_linear_401_147" x1="-14.462" x2="-14.462" y1="-2.882" y2="92.845" gradientUnits="userSpaceOnUse">
      <stop stop-color="#fff"/>
      <stop offset="1" stop-color="#fff" stop-opacity="0"/>
    </linearGradient>
  </defs>
</svg>
