<svg xmlns="http://www.w3.org/2000/svg" width="425" height="561" fill="none" viewBox="0 0 425 561">
  <path fill="#004E92" d="M418.775 115.606h-86.582c-12.301 0-22.301-10.004-22.301-22.3V6.722A6.222 6.222 0 01316.115.5a6.221 6.221 0 016.222 6.223v86.582c0 5.438 4.426 9.856 9.856 9.856h86.582a6.222 6.222 0 110 12.445zM73.365 221.936H46.076a6.227 6.227 0 01-6.223-6.223v-45.242a6.226 6.226 0 016.223-6.222h27.289c10.613 0 19.25 8.636 19.25 19.258v19.176c.004 10.617-8.633 19.254-19.25 19.254v-.001zm-21.074-12.445h21.07a6.815 6.815 0 006.809-6.812v-19.176c0-3.758-3.055-6.813-6.809-6.813h-21.07v32.801z"/>
  <path fill="#004E92" d="M46.065 252.916a6.227 6.227 0 01-6.223-6.223v-30.98a6.226 6.226 0 016.223-6.222 6.226 6.226 0 016.223 6.222v30.98a6.222 6.222 0 01-6.223 6.223zM148.465 252.916h-25.953a6.227 6.227 0 01-6.223-6.223V170.47a6.226 6.226 0 016.223-6.222h25.953c11.355 0 20.594 9.238 20.594 20.594v47.48c0 11.352-9.238 20.594-20.594 20.594zm-19.73-12.445h19.73c4.492 0 8.152-3.652 8.152-8.152v-47.48c0-4.492-3.66-8.153-8.152-8.153h-19.73v63.785zM200.325 252.916a6.227 6.227 0 01-6.223-6.223V170.47a6.226 6.226 0 016.223-6.222 6.226 6.226 0 016.223 6.222v76.223a6.222 6.222 0 01-6.223 6.223z"/>
  <path fill="#004E92" d="M240.655 176.686h-40.328a6.227 6.227 0 01-6.223-6.223 6.226 6.226 0 016.223-6.222h40.328a6.222 6.222 0 110 12.445zM226.745 214.796h-26.414a6.227 6.227 0 01-6.223-6.223 6.226 6.226 0 016.223-6.222h26.414a6.222 6.222 0 016.223 6.222 6.22 6.22 0 01-6.223 6.223z"/>
  <path fill="#004E92" d="M264.285 285.476h-244.8C9.02 285.476.512 277.167.512 266.96V150.19c0-10.211 8.512-18.516 18.973-18.516h244.81c10.465 0 18.977 8.309 18.977 18.516v116.77c0 10.203-8.512 18.512-18.98 18.512l-.007.004zm-244.8-141.36c-3.602 0-6.527 2.727-6.527 6.074v116.77c0 3.348 2.93 6.074 6.527 6.074h244.81c3.602 0 6.535-2.726 6.535-6.074l-.004-116.78c0-3.347-2.929-6.074-6.535-6.074l-244.806.01zM269.965 560.496h-76.41c-7.863 0-14.266-6.535-14.266-14.566v-94.645h-22.078a12.207 12.207 0 01-11.316-7.566 12.22 12.22 0 012.652-13.352l71.461-71.457c6.477-6.485 17.02-6.473 23.508-.008l71.457 71.461a12.238 12.238 0 012.656 13.359 12.223 12.223 0 01-11.316 7.558h-22.082v94.645c-.003 8.036-6.402 14.57-14.266 14.57v.001zm-84.453-121.66a6.222 6.222 0 016.223 6.223v100.87c0 1.168.816 2.121 1.824 2.121h76.41c1 0 1.816-.953 1.816-2.121l-.004-100.87a6.217 6.217 0 016.223-6.223h28.328l-71.617-71.137c-1.625-1.625-4.281-1.637-5.91 0l-71.461 71.461 28.168-.324z"/>
  <path fill="#004E92" d="M141.735 516.596h-79.36c-13.16 0-23.862-10.707-23.862-23.867v-213.47a6.227 6.227 0 016.223-6.223 6.227 6.227 0 016.222 6.223v213.47c0 6.305 5.121 11.426 11.418 11.426h79.359a6.222 6.222 0 016.223 6.223 6.213 6.213 0 01-6.223 6.215v.003zM401.135 516.596h-81.309a6.217 6.217 0 01-6.223-6.223 6.216 6.216 0 016.223-6.222h81.305c6.305 0 11.426-5.121 11.426-11.426v-376.04c0-3.051-1.188-5.918-3.348-8.071L316.893 16.29a11.338 11.338 0 00-8.078-3.347H62.375c-6.297 0-11.418 5.129-11.418 11.426v113.54a6.226 6.226 0 01-6.223 6.222 6.226 6.226 0 01-6.222-6.222V24.369c0-13.16 10.703-23.867 23.863-23.867h246.43c6.371 0 12.363 2.484 16.883 6.988l92.32 92.324c4.511 4.504 6.992 10.496 6.992 16.875v376.04c0 13.168-10.703 23.871-23.867 23.871l.002-.004z"/>
</svg>
