<svg xmlns="http://www.w3.org/2000/svg" width="532" height="501" fill="none" viewBox="0 0 532 501">
  <path fill="#004E92" d="M8.481 273.712L.083 366.673c-1.121 10.078 10.078 17.922 19.039 12.879l25.762-12.879c42 79.52 125.44 133.84 221.2 133.84 112.56 0 207.76-74.48 239.12-176.96 3.922-12.879-6.16-26.32-19.602-26.32-8.961 0-16.801 6.16-19.602 14.559-26.316 85.68-105.84 147.84-199.92 147.84-80.078 0-150.08-45.359-184.8-111.44l26.32-13.441c9.519-4.481 9.519-17.922 1.121-22.961l-80.082-48.156c-8.398-5.04-19.039.562-20.16 10.082l.002-.004zM266.083.99c-112.56 0-207.76 74.48-239.12 176.96-3.922 12.879 6.16 26.32 19.602 26.32 8.961 0 16.801-6.161 19.602-14.559 26.316-85.68 105.84-147.84 199.92-147.84 80.078 0 150.08 45.359 184.8 111.44l-26.32 13.441c-9.519 4.48-9.519 17.922-1.121 22.961l79.52 48.16c8.399 5.039 19.039-.559 20.16-10.078l8.399-92.398c1.121-10.078-10.078-17.922-19.039-12.879l-25.762 12.879C445.286 55.307 361.844.987 266.084.987l-.001.003z"/>
</svg>
